<?xml version="1.0" encoding="UTF-8"?>
<svg xmlns="http://www.w3.org/2000/svg" xmlns:xlink="http://www.w3.org/1999/xlink" width="404.986153pt" height="433.786153pt" viewBox="0 0 404.986153 433.786153" version="1.1" id="Fig:pca"><defs><g><symbol overflow="visible" id="pca-glyph0-0"><path style="stroke:none;" d="M 5.261719 -2.085938 L 6.398438 -1.945313 C 6.21875 -1.28125 5.886719 -0.765625 5.402344 -0.402344 C 4.917969 -0.0351563 4.296875 0.144531 3.546875 0.148438 C 2.59375 0.144531 1.84375 -0.144531 1.289063 -0.726563 C 0.734375 -1.3125 0.457031 -2.132813 0.457031 -3.1875 C 0.457031 -4.273438 0.734375 -5.117188 1.296875 -5.722656 C 1.855469 -6.324219 2.585938 -6.625 3.484375 -6.628906 C 4.347656 -6.625 5.054688 -6.332031 5.609375 -5.742188 C 6.15625 -5.152344 6.433594 -4.320313 6.433594 -3.253906 C 6.433594 -3.183594 6.429688 -3.085938 6.425781 -2.960938 L 1.59375 -2.960938 C 1.632813 -2.242188 1.832031 -1.699219 2.195313 -1.324219 C 2.558594 -0.945313 3.011719 -0.753906 3.550781 -0.757813 C 3.953125 -0.753906 4.296875 -0.859375 4.582031 -1.074219 C 4.867188 -1.28125 5.09375 -1.621094 5.261719 -2.085938 Z M 1.652344 -3.863281 L 5.273438 -3.863281 C 5.222656 -4.402344 5.082031 -4.8125 4.859375 -5.089844 C 4.503906 -5.511719 4.050781 -5.722656 3.496094 -5.726563 C 2.992188 -5.722656 2.570313 -5.554688 2.226563 -5.21875 C 1.882813 -4.878906 1.691406 -4.425781 1.652344 -3.863281 Z M 1.652344 -3.863281 "/></symbol><symbol overflow="visible" id="pca-glyph0-1"><path style="stroke:none;" d="M 0.824219 2.484375 L 0.824219 -6.480469 L 1.824219 -6.480469 L 1.824219 -5.640625 C 2.058594 -5.964844 2.328125 -6.210938 2.625 -6.378906 C 2.921875 -6.542969 3.28125 -6.625 3.703125 -6.628906 C 4.257813 -6.625 4.746094 -6.484375 5.167969 -6.199219 C 5.589844 -5.914063 5.910156 -5.511719 6.128906 -4.996094 C 6.34375 -4.476563 6.449219 -3.90625 6.453125 -3.289063 C 6.449219 -2.625 6.332031 -2.03125 6.09375 -1.5 C 5.855469 -0.96875 5.507813 -0.558594 5.054688 -0.277344 C 4.597656 0.0078125 4.121094 0.144531 3.625 0.148438 C 3.257813 0.144531 2.929688 0.0703125 2.640625 -0.0820313 C 2.347656 -0.238281 2.109375 -0.433594 1.921875 -0.671875 L 1.921875 2.484375 Z M 1.820313 -3.203125 C 1.816406 -2.367188 1.984375 -1.75 2.324219 -1.355469 C 2.660156 -0.953125 3.070313 -0.753906 3.550781 -0.757813 C 4.039063 -0.753906 4.457031 -0.960938 4.804688 -1.375 C 5.152344 -1.785156 5.324219 -2.425781 5.328125 -3.296875 C 5.324219 -4.121094 5.15625 -4.738281 4.816406 -5.152344 C 4.476563 -5.558594 4.070313 -5.765625 3.601563 -5.769531 C 3.128906 -5.765625 2.714844 -5.546875 2.359375 -5.113281 C 1.996094 -4.671875 1.816406 -4.035156 1.820313 -3.203125 Z M 1.820313 -3.203125 "/></symbol><symbol overflow="visible" id="pca-glyph0-2"><path style="stroke:none;" d="M 0.828125 -7.683594 L 0.828125 -8.949219 L 1.929688 -8.949219 L 1.929688 -7.683594 Z M 0.828125 0 L 0.828125 -6.480469 L 1.929688 -6.480469 L 1.929688 0 Z M 0.828125 0 "/></symbol><symbol overflow="visible" id="pca-glyph0-3"><path style="stroke:none;" d="M 3.222656 -0.984375 L 3.382813 -0.0117188 C 3.070313 0.0507813 2.792969 0.0820313 2.550781 0.0859375 C 2.148438 0.0820313 1.839844 0.0234375 1.621094 -0.101563 C 1.398438 -0.226563 1.242188 -0.394531 1.15625 -0.601563 C 1.0625 -0.804688 1.019531 -1.238281 1.023438 -1.898438 L 1.023438 -5.628906 L 0.21875 -5.628906 L 0.21875 -6.480469 L 1.023438 -6.480469 L 1.023438 -8.085938 L 2.117188 -8.746094 L 2.117188 -6.480469 L 3.222656 -6.480469 L 3.222656 -5.628906 L 2.117188 -5.628906 L 2.117188 -1.835938 C 2.113281 -1.519531 2.132813 -1.320313 2.175781 -1.230469 C 2.210938 -1.140625 2.273438 -1.070313 2.363281 -1.019531 C 2.449219 -0.964844 2.578125 -0.9375 2.742188 -0.941406 C 2.859375 -0.9375 3.019531 -0.953125 3.222656 -0.984375 Z M 3.222656 -0.984375 "/></symbol><symbol overflow="visible" id="pca-glyph0-4"><path style="stroke:none;" d="M 0.824219 0 L 0.824219 -8.949219 L 1.921875 -8.949219 L 1.921875 -5.738281 C 2.433594 -6.328125 3.078125 -6.625 3.863281 -6.628906 C 4.339844 -6.625 4.757813 -6.53125 5.113281 -6.34375 C 5.464844 -6.152344 5.71875 -5.890625 5.871094 -5.558594 C 6.023438 -5.222656 6.097656 -4.738281 6.101563 -4.109375 L 6.101563 0 L 5.003906 0 L 5.003906 -4.109375 C 5.003906 -4.652344 4.882813 -5.050781 4.644531 -5.304688 C 4.40625 -5.554688 4.070313 -5.683594 3.636719 -5.683594 C 3.308594 -5.683594 3.003906 -5.597656 2.71875 -5.429688 C 2.429688 -5.257813 2.222656 -5.027344 2.105469 -4.742188 C 1.980469 -4.449219 1.921875 -4.050781 1.921875 -3.546875 L 1.921875 0 Z M 0.824219 0 "/></symbol><symbol overflow="visible" id="pca-glyph0-5"><path style="stroke:none;" d="M 0.800781 0 L 0.800781 -8.949219 L 1.898438 -8.949219 L 1.898438 0 Z M 0.800781 0 "/></symbol><symbol overflow="visible" id="pca-glyph0-6"><path style="stroke:none;" d="M 5.054688 -0.800781 C 4.644531 -0.453125 4.253906 -0.207031 3.878906 -0.0664063 C 3.5 0.078125 3.09375 0.144531 2.667969 0.148438 C 1.949219 0.144531 1.402344 -0.0273438 1.023438 -0.375 C 0.640625 -0.722656 0.449219 -1.167969 0.453125 -1.710938 C 0.449219 -2.023438 0.523438 -2.3125 0.667969 -2.578125 C 0.8125 -2.839844 1 -3.050781 1.234375 -3.210938 C 1.464844 -3.367188 1.730469 -3.484375 2.027344 -3.570313 C 2.242188 -3.625 2.566406 -3.679688 3.003906 -3.734375 C 3.886719 -3.835938 4.539063 -3.964844 4.960938 -4.113281 C 4.964844 -4.261719 4.96875 -4.355469 4.96875 -4.402344 C 4.96875 -4.84375 4.863281 -5.160156 4.65625 -5.347656 C 4.371094 -5.59375 3.953125 -5.71875 3.40625 -5.71875 C 2.882813 -5.71875 2.5 -5.625 2.257813 -5.445313 C 2.007813 -5.261719 1.828125 -4.941406 1.714844 -4.484375 L 0.640625 -4.632813 C 0.734375 -5.089844 0.894531 -5.460938 1.121094 -5.746094 C 1.339844 -6.027344 1.664063 -6.246094 2.089844 -6.398438 C 2.511719 -6.550781 3.003906 -6.625 3.5625 -6.628906 C 4.117188 -6.625 4.566406 -6.5625 4.914063 -6.433594 C 5.257813 -6.300781 5.511719 -6.136719 5.675781 -5.941406 C 5.835938 -5.742188 5.949219 -5.492188 6.019531 -5.195313 C 6.050781 -5.003906 6.070313 -4.664063 6.074219 -4.179688 L 6.074219 -2.714844 C 6.070313 -1.691406 6.09375 -1.046875 6.144531 -0.777344 C 6.1875 -0.503906 6.28125 -0.246094 6.421875 0 L 5.273438 0 C 5.15625 -0.226563 5.082031 -0.492188 5.054688 -0.800781 Z M 4.960938 -3.253906 C 4.558594 -3.085938 3.960938 -2.949219 3.167969 -2.839844 C 2.714844 -2.773438 2.394531 -2.699219 2.210938 -2.617188 C 2.019531 -2.535156 1.875 -2.417969 1.777344 -2.261719 C 1.671875 -2.105469 1.621094 -1.929688 1.625 -1.738281 C 1.621094 -1.445313 1.734375 -1.203125 1.957031 -1.007813 C 2.175781 -0.8125 2.5 -0.714844 2.929688 -0.714844 C 3.351563 -0.714844 3.726563 -0.804688 4.058594 -0.992188 C 4.386719 -1.171875 4.628906 -1.425781 4.785156 -1.75 C 4.898438 -1.996094 4.957031 -2.363281 4.960938 -2.851563 Z M 4.960938 -3.253906 "/></symbol><symbol overflow="visible" id="pca-glyph0-7"><path style="stroke:none;" d="M 0.382813 -1.933594 L 1.472656 -2.105469 C 1.527344 -1.667969 1.699219 -1.335938 1.980469 -1.105469 C 2.257813 -0.871094 2.644531 -0.753906 3.148438 -0.757813 C 3.648438 -0.753906 4.023438 -0.859375 4.273438 -1.066406 C 4.515625 -1.269531 4.640625 -1.507813 4.640625 -1.789063 C 4.640625 -2.03125 4.53125 -2.226563 4.316406 -2.375 C 4.164063 -2.46875 3.789063 -2.59375 3.191406 -2.746094 C 2.382813 -2.945313 1.824219 -3.121094 1.515625 -3.273438 C 1.203125 -3.417969 0.96875 -3.625 0.808594 -3.890625 C 0.644531 -4.152344 0.5625 -4.441406 0.566406 -4.761719 C 0.5625 -5.046875 0.628906 -5.3125 0.765625 -5.5625 C 0.894531 -5.804688 1.074219 -6.011719 1.304688 -6.175781 C 1.472656 -6.300781 1.707031 -6.40625 2.003906 -6.496094 C 2.300781 -6.582031 2.617188 -6.625 2.953125 -6.628906 C 3.460938 -6.625 3.90625 -6.550781 4.292969 -6.40625 C 4.675781 -6.257813 4.960938 -6.0625 5.144531 -5.8125 C 5.328125 -5.5625 5.453125 -5.226563 5.523438 -4.808594 L 4.449219 -4.664063 C 4.394531 -4.996094 4.253906 -5.253906 4.023438 -5.445313 C 3.789063 -5.628906 3.460938 -5.722656 3.035156 -5.726563 C 2.527344 -5.722656 2.164063 -5.640625 1.953125 -5.476563 C 1.734375 -5.308594 1.628906 -5.113281 1.628906 -4.890625 C 1.628906 -4.746094 1.671875 -4.617188 1.765625 -4.503906 C 1.851563 -4.382813 1.992188 -4.285156 2.183594 -4.210938 C 2.292969 -4.167969 2.617188 -4.074219 3.15625 -3.929688 C 3.929688 -3.722656 4.472656 -3.554688 4.78125 -3.421875 C 5.085938 -3.289063 5.324219 -3.09375 5.503906 -2.84375 C 5.675781 -2.585938 5.765625 -2.273438 5.769531 -1.90625 C 5.765625 -1.535156 5.65625 -1.191406 5.445313 -0.867188 C 5.226563 -0.542969 4.917969 -0.292969 4.519531 -0.117188 C 4.113281 0.0585938 3.660156 0.144531 3.15625 0.148438 C 2.308594 0.144531 1.664063 -0.0273438 1.226563 -0.375 C 0.78125 -0.726563 0.5 -1.246094 0.382813 -1.933594 Z M 0.382813 -1.933594 "/></symbol><symbol overflow="visible" id="pca-glyph0-8"><path style="stroke:none;" d="M 0.8125 0 L 0.8125 -6.480469 L 1.800781 -6.480469 L 1.800781 -5.5 C 2.050781 -5.957031 2.285156 -6.257813 2.5 -6.40625 C 2.710938 -6.550781 2.945313 -6.625 3.203125 -6.628906 C 3.570313 -6.625 3.945313 -6.507813 4.332031 -6.273438 L 3.953125 -5.253906 C 3.683594 -5.410156 3.414063 -5.488281 3.148438 -5.492188 C 2.90625 -5.488281 2.691406 -5.417969 2.5 -5.273438 C 2.308594 -5.128906 2.171875 -4.929688 2.09375 -4.675781 C 1.96875 -4.285156 1.910156 -3.855469 1.910156 -3.394531 L 1.910156 0 Z M 0.8125 0 "/></symbol><symbol overflow="visible" id="pca-glyph0-9"><path style="stroke:none;" d="M 0.414063 -3.242188 C 0.410156 -4.4375 0.742188 -5.328125 1.414063 -5.90625 C 1.96875 -6.386719 2.648438 -6.625 3.453125 -6.628906 C 4.34375 -6.625 5.074219 -6.332031 5.640625 -5.75 C 6.203125 -5.164063 6.484375 -4.359375 6.488281 -3.332031 C 6.484375 -2.496094 6.359375 -1.839844 6.113281 -1.363281 C 5.859375 -0.882813 5.496094 -0.511719 5.019531 -0.25 C 4.539063 0.015625 4.015625 0.144531 3.453125 0.148438 C 2.542969 0.144531 1.8125 -0.140625 1.253906 -0.722656 C 0.691406 -1.300781 0.410156 -2.140625 0.414063 -3.242188 Z M 1.542969 -3.242188 C 1.539063 -2.40625 1.722656 -1.785156 2.085938 -1.375 C 2.445313 -0.960938 2.898438 -0.753906 3.453125 -0.757813 C 3.996094 -0.753906 4.453125 -0.960938 4.816406 -1.378906 C 5.175781 -1.789063 5.355469 -2.421875 5.359375 -3.277344 C 5.355469 -4.074219 5.171875 -4.683594 4.8125 -5.097656 C 4.445313 -5.511719 3.992188 -5.71875 3.453125 -5.71875 C 2.898438 -5.71875 2.445313 -5.511719 2.085938 -5.101563 C 1.722656 -4.6875 1.539063 -4.066406 1.542969 -3.242188 Z M 1.542969 -3.242188 "/></symbol><symbol overflow="visible" id="pca-glyph0-10"><path style="stroke:none;" d="M 0.824219 0 L 0.824219 -6.480469 L 1.804688 -6.480469 L 1.804688 -5.574219 C 2.007813 -5.886719 2.277344 -6.140625 2.617188 -6.335938 C 2.953125 -6.527344 3.339844 -6.625 3.773438 -6.628906 C 4.25 -6.625 4.640625 -6.527344 4.953125 -6.328125 C 5.257813 -6.128906 5.476563 -5.847656 5.601563 -5.492188 C 6.113281 -6.246094 6.78125 -6.625 7.605469 -6.628906 C 8.246094 -6.625 8.738281 -6.449219 9.085938 -6.09375 C 9.429688 -5.734375 9.601563 -5.183594 9.605469 -4.449219 L 9.605469 0 L 8.515625 0 L 8.515625 -4.082031 C 8.511719 -4.519531 8.476563 -4.835938 8.40625 -5.03125 C 8.332031 -5.222656 8.203125 -5.378906 8.019531 -5.496094 C 7.828125 -5.613281 7.609375 -5.671875 7.359375 -5.675781 C 6.902344 -5.671875 6.523438 -5.519531 6.222656 -5.21875 C 5.921875 -4.914063 5.769531 -4.429688 5.773438 -3.765625 L 5.773438 0 L 4.675781 0 L 4.675781 -4.210938 C 4.675781 -4.699219 4.585938 -5.066406 4.40625 -5.308594 C 4.226563 -5.550781 3.933594 -5.671875 3.527344 -5.675781 C 3.214844 -5.671875 2.925781 -5.589844 2.667969 -5.429688 C 2.402344 -5.265625 2.214844 -5.027344 2.097656 -4.71875 C 1.980469 -4.402344 1.921875 -3.953125 1.921875 -3.363281 L 1.921875 0 Z M 0.824219 0 "/></symbol><symbol overflow="visible" id="pca-glyph0-11"><path style="stroke:none;" d="M 0.964844 0 L 0.964844 -8.949219 L 4.339844 -8.949219 C 4.929688 -8.945313 5.382813 -8.917969 5.699219 -8.863281 C 6.136719 -8.789063 6.503906 -8.648438 6.804688 -8.445313 C 7.097656 -8.234375 7.335938 -7.945313 7.519531 -7.578125 C 7.699219 -7.203125 7.792969 -6.796875 7.792969 -6.359375 C 7.792969 -5.59375 7.550781 -4.949219 7.066406 -4.425781 C 6.582031 -3.894531 5.707031 -3.632813 4.445313 -3.636719 L 2.148438 -3.636719 L 2.148438 0 Z M 2.148438 -4.695313 L 4.460938 -4.695313 C 5.222656 -4.691406 5.765625 -4.835938 6.089844 -5.121094 C 6.410156 -5.402344 6.574219 -5.800781 6.574219 -6.324219 C 6.574219 -6.691406 6.476563 -7.011719 6.289063 -7.28125 C 6.097656 -7.546875 5.851563 -7.722656 5.542969 -7.8125 C 5.339844 -7.859375 4.96875 -7.886719 4.4375 -7.890625 L 2.148438 -7.890625 Z M 2.148438 -4.695313 "/></symbol><symbol overflow="visible" id="pca-glyph0-12"><path style="stroke:none;" d="M 7.347656 -3.136719 L 8.53125 -2.839844 C 8.28125 -1.863281 7.832031 -1.121094 7.191406 -0.613281 C 6.542969 -0.101563 5.757813 0.152344 4.828125 0.152344 C 3.863281 0.152344 3.078125 -0.0429688 2.476563 -0.433594 C 1.871094 -0.824219 1.410156 -1.390625 1.09375 -2.140625 C 0.777344 -2.882813 0.621094 -3.683594 0.621094 -4.539063 C 0.621094 -5.46875 0.796875 -6.28125 1.15625 -6.976563 C 1.507813 -7.667969 2.015625 -8.195313 2.675781 -8.558594 C 3.332031 -8.917969 4.054688 -9.097656 4.847656 -9.101563 C 5.738281 -9.097656 6.492188 -8.871094 7.101563 -8.417969 C 7.710938 -7.960938 8.136719 -7.320313 8.378906 -6.492188 L 7.214844 -6.21875 C 7.003906 -6.867188 6.703125 -7.34375 6.308594 -7.640625 C 5.914063 -7.9375 5.417969 -8.085938 4.820313 -8.085938 C 4.128906 -8.085938 3.554688 -7.917969 3.097656 -7.589844 C 2.632813 -7.257813 2.308594 -6.816406 2.125 -6.265625 C 1.933594 -5.707031 1.839844 -5.136719 1.84375 -4.546875 C 1.839844 -3.785156 1.949219 -3.121094 2.175781 -2.554688 C 2.394531 -1.984375 2.742188 -1.558594 3.210938 -1.28125 C 3.679688 -0.996094 4.183594 -0.855469 4.730469 -0.859375 C 5.390625 -0.855469 5.953125 -1.046875 6.414063 -1.433594 C 6.871094 -1.8125 7.183594 -2.378906 7.347656 -3.136719 Z M 7.347656 -3.136719 "/></symbol><symbol overflow="visible" id="pca-glyph0-13"><path style="stroke:none;" d="M 4.65625 0 L 3.558594 0 L 3.558594 -7 C 3.289063 -6.746094 2.941406 -6.492188 2.515625 -6.242188 C 2.085938 -5.988281 1.703125 -5.800781 1.359375 -5.675781 L 1.359375 -6.738281 C 1.972656 -7.027344 2.507813 -7.375 2.972656 -7.789063 C 3.429688 -8.195313 3.757813 -8.59375 3.949219 -8.984375 L 4.65625 -8.984375 Z M 4.65625 0 "/></symbol><symbol overflow="visible" id="pca-glyph1-0"><path style="stroke:none;" d="M 0 -0.964844 L -8.949219 -0.964844 L -8.949219 -4.339844 C -8.945313 -4.929688 -8.917969 -5.382813 -8.863281 -5.699219 C -8.789063 -6.136719 -8.648438 -6.503906 -8.445313 -6.804688 C -8.234375 -7.097656 -7.945313 -7.335938 -7.578125 -7.519531 C -7.203125 -7.699219 -6.796875 -7.792969 -6.359375 -7.792969 C -5.59375 -7.792969 -4.949219 -7.550781 -4.425781 -7.066406 C -3.894531 -6.582031 -3.632813 -5.707031 -3.636719 -4.445313 L -3.636719 -2.148438 L 0 -2.148438 Z M -4.695313 -2.148438 L -4.695313 -4.460938 C -4.691406 -5.222656 -4.835938 -5.765625 -5.121094 -6.089844 C -5.402344 -6.410156 -5.800781 -6.574219 -6.324219 -6.574219 C -6.691406 -6.574219 -7.011719 -6.476563 -7.28125 -6.289063 C -7.546875 -6.097656 -7.722656 -5.851563 -7.8125 -5.542969 C -7.859375 -5.339844 -7.886719 -4.96875 -7.890625 -4.4375 L -7.890625 -2.148438 Z M -4.695313 -2.148438 "/></symbol><symbol overflow="visible" id="pca-glyph1-1"><path style="stroke:none;" d="M -3.136719 -7.347656 L -2.839844 -8.53125 C -1.863281 -8.28125 -1.121094 -7.832031 -0.613281 -7.191406 C -0.101563 -6.542969 0.152344 -5.757813 0.152344 -4.828125 C 0.152344 -3.863281 -0.0429688 -3.078125 -0.433594 -2.476563 C -0.824219 -1.871094 -1.390625 -1.410156 -2.140625 -1.09375 C -2.882813 -0.777344 -3.683594 -0.621094 -4.539063 -0.621094 C -5.46875 -0.621094 -6.28125 -0.796875 -6.976563 -1.15625 C -7.667969 -1.507813 -8.195313 -2.015625 -8.558594 -2.675781 C -8.917969 -3.332031 -9.097656 -4.054688 -9.101563 -4.847656 C -9.097656 -5.738281 -8.871094 -6.492188 -8.417969 -7.101563 C -7.960938 -7.710938 -7.320313 -8.136719 -6.492188 -8.378906 L -6.21875 -7.214844 C -6.867188 -7.003906 -7.34375 -6.703125 -7.640625 -6.308594 C -7.9375 -5.914063 -8.085938 -5.417969 -8.085938 -4.820313 C -8.085938 -4.128906 -7.917969 -3.554688 -7.589844 -3.097656 C -7.257813 -2.632813 -6.816406 -2.308594 -6.265625 -2.125 C -5.707031 -1.933594 -5.136719 -1.839844 -4.546875 -1.84375 C -3.785156 -1.839844 -3.121094 -1.949219 -2.554688 -2.175781 C -1.984375 -2.394531 -1.558594 -2.742188 -1.28125 -3.210938 C -0.996094 -3.679688 -0.855469 -4.183594 -0.859375 -4.730469 C -0.855469 -5.390625 -1.046875 -5.953125 -1.433594 -6.414063 C -1.8125 -6.871094 -2.378906 -7.183594 -3.136719 -7.347656 Z M -3.136719 -7.347656 "/></symbol><symbol overflow="visible" id="pca-glyph1-2"><path style="stroke:none;" d="M -1.054688 -6.292969 L 0 -6.292969 L 0 -0.378906 C -0.265625 -0.367188 -0.519531 -0.410156 -0.761719 -0.507813 C -1.164063 -0.65625 -1.558594 -0.898438 -1.953125 -1.230469 C -2.339844 -1.558594 -2.792969 -2.035156 -3.308594 -2.667969 C -4.101563 -3.636719 -4.734375 -4.292969 -5.203125 -4.636719 C -5.667969 -4.976563 -6.105469 -5.148438 -6.523438 -5.152344 C -6.957031 -5.148438 -7.324219 -4.992188 -7.625 -4.683594 C -7.921875 -4.371094 -8.074219 -3.96875 -8.074219 -3.46875 C -8.074219 -2.9375 -7.914063 -2.511719 -7.597656 -2.195313 C -7.277344 -1.878906 -6.839844 -1.71875 -6.28125 -1.714844 L -6.398438 -0.585938 C -7.238281 -0.664063 -7.878906 -0.953125 -8.320313 -1.457031 C -8.761719 -1.960938 -8.980469 -2.640625 -8.984375 -3.492188 C -8.980469 -4.347656 -8.742188 -5.023438 -8.269531 -5.527344 C -7.789063 -6.027344 -7.199219 -6.28125 -6.5 -6.28125 C -6.140625 -6.28125 -5.789063 -6.207031 -5.445313 -6.058594 C -5.09375 -5.910156 -4.730469 -5.664063 -4.351563 -5.328125 C -3.964844 -4.984375 -3.441406 -4.421875 -2.777344 -3.636719 C -2.222656 -2.976563 -1.84375 -2.554688 -1.648438 -2.367188 C -1.449219 -2.179688 -1.253906 -2.023438 -1.054688 -1.90625 Z M -1.054688 -6.292969 "/></symbol><symbol overflow="visible" id="pca-glyph2-0"><path style="stroke:none;" d="M 0.320313 -2.171875 L 0.320313 -3.0625 L 3.046875 -3.0625 L 3.046875 -2.171875 Z M 0.320313 -2.171875 "/></symbol><symbol overflow="visible" id="pca-glyph2-1"><path style="stroke:none;" d="M 5.023438 -5.460938 L 4.144531 -5.390625 C 4.058594 -5.738281 3.949219 -5.988281 3.808594 -6.148438 C 3.566406 -6.398438 3.269531 -6.527344 2.917969 -6.53125 C 2.636719 -6.527344 2.386719 -6.449219 2.175781 -6.292969 C 1.890625 -6.089844 1.671875 -5.789063 1.511719 -5.398438 C 1.351563 -5.003906 1.265625 -4.449219 1.261719 -3.726563 C 1.472656 -4.050781 1.734375 -4.292969 2.046875 -4.453125 C 2.351563 -4.609375 2.675781 -4.6875 3.019531 -4.691406 C 3.605469 -4.6875 4.109375 -4.46875 4.527344 -4.035156 C 4.941406 -3.597656 5.148438 -3.035156 5.152344 -2.347656 C 5.148438 -1.890625 5.050781 -1.46875 4.859375 -1.082031 C 4.660156 -0.691406 4.390625 -0.394531 4.050781 -0.1875 C 3.707031 0.0195313 3.320313 0.121094 2.890625 0.125 C 2.148438 0.121094 1.546875 -0.148438 1.078125 -0.691406 C 0.609375 -1.234375 0.375 -2.128906 0.378906 -3.382813 C 0.375 -4.777344 0.632813 -5.792969 1.152344 -6.429688 C 1.601563 -6.976563 2.207031 -7.253906 2.972656 -7.257813 C 3.539063 -7.253906 4.007813 -7.09375 4.371094 -6.777344 C 4.734375 -6.457031 4.949219 -6.019531 5.023438 -5.460938 Z M 1.402344 -2.34375 C 1.398438 -2.035156 1.464844 -1.742188 1.59375 -1.464844 C 1.722656 -1.183594 1.902344 -0.96875 2.140625 -0.824219 C 2.371094 -0.675781 2.617188 -0.601563 2.875 -0.605469 C 3.246094 -0.601563 3.566406 -0.753906 3.839844 -1.058594 C 4.105469 -1.359375 4.242188 -1.769531 4.246094 -2.292969 C 4.242188 -2.789063 4.109375 -3.183594 3.84375 -3.472656 C 3.578125 -3.757813 3.242188 -3.902344 2.839844 -3.90625 C 2.4375 -3.902344 2.097656 -3.757813 1.820313 -3.472656 C 1.539063 -3.183594 1.398438 -2.808594 1.402344 -2.34375 Z M 1.402344 -2.34375 "/></symbol><symbol overflow="visible" id="pca-glyph2-2"><path style="stroke:none;" d="M 0.417969 -3.566406 C 0.414063 -4.417969 0.503906 -5.105469 0.679688 -5.628906 C 0.855469 -6.148438 1.117188 -6.550781 1.464844 -6.832031 C 1.8125 -7.113281 2.25 -7.253906 2.777344 -7.257813 C 3.164063 -7.253906 3.503906 -7.175781 3.796875 -7.023438 C 4.085938 -6.863281 4.324219 -6.636719 4.519531 -6.347656 C 4.707031 -6.050781 4.859375 -5.695313 4.96875 -5.273438 C 5.078125 -4.851563 5.132813 -4.28125 5.132813 -3.566406 C 5.132813 -2.714844 5.042969 -2.03125 4.871094 -1.511719 C 4.691406 -0.988281 4.433594 -0.582031 4.089844 -0.300781 C 3.742188 -0.015625 3.304688 0.121094 2.777344 0.125 C 2.078125 0.121094 1.527344 -0.125 1.132813 -0.625 C 0.652344 -1.222656 0.414063 -2.203125 0.417969 -3.566406 Z M 1.332031 -3.566406 C 1.328125 -2.375 1.46875 -1.585938 1.746094 -1.195313 C 2.023438 -0.800781 2.367188 -0.601563 2.777344 -0.605469 C 3.183594 -0.601563 3.523438 -0.800781 3.804688 -1.195313 C 4.078125 -1.589844 4.21875 -2.378906 4.222656 -3.566406 C 4.21875 -4.753906 4.078125 -5.542969 3.804688 -5.9375 C 3.523438 -6.324219 3.179688 -6.519531 2.765625 -6.523438 C 2.359375 -6.519531 2.03125 -6.347656 1.789063 -6.007813 C 1.480469 -5.5625 1.328125 -4.75 1.332031 -3.566406 Z M 1.332031 -3.566406 "/></symbol><symbol overflow="visible" id="pca-glyph2-3"><path style="stroke:none;" d="M 3.265625 0 L 3.265625 -1.730469 L 0.128906 -1.730469 L 0.128906 -2.542969 L 3.425781 -7.230469 L 4.152344 -7.230469 L 4.152344 -2.542969 L 5.128906 -2.542969 L 5.128906 -1.730469 L 4.152344 -1.730469 L 4.152344 0 Z M 3.265625 -2.542969 L 3.265625 -5.804688 L 1 -2.542969 Z M 3.265625 -2.542969 "/></symbol><symbol overflow="visible" id="pca-glyph2-4"><path style="stroke:none;" d="M 5.085938 -0.851563 L 5.085938 0 L 0.304688 0 C 0.296875 -0.210938 0.332031 -0.414063 0.410156 -0.617188 C 0.53125 -0.9375 0.722656 -1.257813 0.992188 -1.578125 C 1.257813 -1.890625 1.648438 -2.257813 2.15625 -2.671875 C 2.9375 -3.316406 3.464844 -3.824219 3.746094 -4.203125 C 4.019531 -4.578125 4.160156 -4.9375 4.164063 -5.273438 C 4.160156 -5.625 4.035156 -5.917969 3.785156 -6.160156 C 3.53125 -6.398438 3.203125 -6.519531 2.800781 -6.523438 C 2.371094 -6.519531 2.027344 -6.390625 1.773438 -6.136719 C 1.515625 -5.878906 1.386719 -5.527344 1.386719 -5.074219 L 0.472656 -5.167969 C 0.53125 -5.847656 0.765625 -6.363281 1.175781 -6.722656 C 1.582031 -7.074219 2.128906 -7.253906 2.820313 -7.257813 C 3.511719 -7.253906 4.0625 -7.0625 4.46875 -6.679688 C 4.871094 -6.296875 5.074219 -5.820313 5.074219 -5.253906 C 5.074219 -4.960938 5.011719 -4.675781 4.894531 -4.398438 C 4.773438 -4.117188 4.578125 -3.824219 4.304688 -3.515625 C 4.027344 -3.203125 3.570313 -2.777344 2.9375 -2.242188 C 2.402344 -1.792969 2.0625 -1.488281 1.914063 -1.332031 C 1.761719 -1.167969 1.636719 -1.007813 1.539063 -0.851563 Z M 5.085938 -0.851563 "/></symbol><symbol overflow="visible" id="pca-glyph2-5"><path style="stroke:none;" d="M 0.417969 -1.894531 L 1.351563 -1.972656 C 1.417969 -1.515625 1.578125 -1.175781 1.832031 -0.949219 C 2.082031 -0.71875 2.386719 -0.601563 2.742188 -0.605469 C 3.167969 -0.601563 3.527344 -0.765625 3.824219 -1.089844 C 4.117188 -1.410156 4.265625 -1.835938 4.269531 -2.371094 C 4.265625 -2.875 4.125 -3.273438 3.84375 -3.570313 C 3.558594 -3.859375 3.183594 -4.007813 2.726563 -4.007813 C 2.4375 -4.007813 2.179688 -3.941406 1.953125 -3.8125 C 1.71875 -3.683594 1.539063 -3.515625 1.410156 -3.308594 L 0.578125 -3.417969 L 1.277344 -7.132813 L 4.871094 -7.132813 L 4.871094 -6.28125 L 1.988281 -6.28125 L 1.597656 -4.339844 C 2.03125 -4.640625 2.488281 -4.792969 2.964844 -4.792969 C 3.59375 -4.792969 4.125 -4.574219 4.558594 -4.136719 C 4.992188 -3.699219 5.207031 -3.136719 5.210938 -2.449219 C 5.207031 -1.792969 5.019531 -1.226563 4.640625 -0.753906 C 4.175781 -0.167969 3.542969 0.121094 2.742188 0.125 C 2.082031 0.121094 1.542969 -0.0585938 1.128906 -0.425781 C 0.710938 -0.792969 0.472656 -1.28125 0.417969 -1.894531 Z M 0.417969 -1.894531 "/></symbol></g><clipPath id="pca-clip1"><path d="M 58.171875 121.527344 L 376.980469 121.527344 L 376.980469 320.734375 L 58.171875 320.734375 Z M 58.171875 121.527344 "/></clipPath></defs><g id="surface26"><path style="fill-rule:nonzero;fill:rgb(89.411765%,10.196078%,10.980392%);fill-opacity:1;stroke-width:1;stroke-linecap:round;stroke-linejoin:round;stroke:rgb(0%,0%,0%);stroke-opacity:1;stroke-miterlimit:10;" d="M 153.492188 68.863281 L 188.25 68.863281 L 188.25 80.691406 L 153.492188 80.691406 Z M 153.492188 68.863281 "/><path style="fill-rule:nonzero;fill:rgb(21.568627%,49.411765%,72.156863%);fill-opacity:1;stroke-width:1;stroke-linecap:round;stroke-linejoin:round;stroke:rgb(0%,0%,0%);stroke-opacity:1;stroke-miterlimit:10;" d="M 153.492188 80.691406 L 188.25 80.691406 L 188.25 92.519531 L 153.492188 92.519531 Z M 153.492188 80.691406 "/><g style="fill:rgb(0%,0%,0%);fill-opacity:1;"><use xlink:href="#pca-glyph0-0" x="202.15625" y="79.253906"/><use xlink:href="#pca-glyph0-1" x="209.108154" y="79.253906"/><use xlink:href="#pca-glyph0-2" x="216.060059" y="79.253906"/><use xlink:href="#pca-glyph0-3" x="218.837158" y="79.253906"/><use xlink:href="#pca-glyph0-4" x="222.310059" y="79.253906"/><use xlink:href="#pca-glyph0-0" x="229.261963" y="79.253906"/><use xlink:href="#pca-glyph0-5" x="236.213867" y="79.253906"/><use xlink:href="#pca-glyph0-2" x="238.990967" y="79.253906"/><use xlink:href="#pca-glyph0-6" x="241.768066" y="79.253906"/><use xlink:href="#pca-glyph0-5" x="248.719971" y="79.253906"/></g><g style="fill:rgb(0%,0%,0%);fill-opacity:1;"><use xlink:href="#pca-glyph0-7" x="202.15625" y="91.082031"/><use xlink:href="#pca-glyph0-3" x="208.40625" y="91.082031"/><use xlink:href="#pca-glyph0-8" x="211.87915" y="91.082031"/><use xlink:href="#pca-glyph0-9" x="216.041748" y="91.082031"/><use xlink:href="#pca-glyph0-10" x="222.993652" y="91.082031"/><use xlink:href="#pca-glyph0-6" x="233.40625" y="91.082031"/></g><g style="fill:rgb(0%,0%,0%);fill-opacity:1;"><use xlink:href="#pca-glyph0-11" x="204.917969" y="358.921875"/><use xlink:href="#pca-glyph0-12" x="213.255371" y="358.921875"/><use xlink:href="#pca-glyph0-13" x="222.282471" y="358.921875"/></g><g style="fill:rgb(0%,0%,0%);fill-opacity:1;"><use xlink:href="#pca-glyph1-0" x="14.949219" y="232.789063"/><use xlink:href="#pca-glyph1-1" x="14.949219" y="224.45166"/><use xlink:href="#pca-glyph1-2" x="14.949219" y="215.424561"/></g><path style="fill:none;stroke-width:1;stroke-linecap:round;stroke-linejoin:round;stroke:rgb(0%,0%,0%);stroke-opacity:1;stroke-miterlimit:10;" d="M 122.660156 121.527344 L 122.660156 115.859375 "/><path style="fill:none;stroke-width:1;stroke-linecap:round;stroke-linejoin:round;stroke:rgb(0%,0%,0%);stroke-opacity:1;stroke-miterlimit:10;" d="M 213.597656 121.527344 L 213.597656 115.859375 "/><path style="fill:none;stroke-width:1;stroke-linecap:round;stroke-linejoin:round;stroke:rgb(0%,0%,0%);stroke-opacity:1;stroke-miterlimit:10;" d="M 304.539063 121.527344 L 304.539063 115.859375 "/><path style="fill:none;stroke-width:1;stroke-linecap:round;stroke-linejoin:round;stroke:rgb(0%,0%,0%);stroke-opacity:1;stroke-miterlimit:10;" d="M 58.171875 313.886719 L 52.5 313.886719 "/><path style="fill:none;stroke-width:1;stroke-linecap:round;stroke-linejoin:round;stroke:rgb(0%,0%,0%);stroke-opacity:1;stroke-miterlimit:10;" d="M 58.171875 277.507813 L 52.5 277.507813 "/><path style="fill:none;stroke-width:1;stroke-linecap:round;stroke-linejoin:round;stroke:rgb(0%,0%,0%);stroke-opacity:1;stroke-miterlimit:10;" d="M 58.171875 241.132813 L 52.5 241.132813 "/><path style="fill:none;stroke-width:1;stroke-linecap:round;stroke-linejoin:round;stroke:rgb(0%,0%,0%);stroke-opacity:1;stroke-miterlimit:10;" d="M 58.171875 204.757813 L 52.5 204.757813 "/><path style="fill:none;stroke-width:1;stroke-linecap:round;stroke-linejoin:round;stroke:rgb(0%,0%,0%);stroke-opacity:1;stroke-miterlimit:10;" d="M 58.171875 168.382813 L 52.5 168.382813 "/><path style="fill:none;stroke-width:1;stroke-linecap:round;stroke-linejoin:round;stroke:rgb(0%,0%,0%);stroke-opacity:1;stroke-miterlimit:10;" d="M 58.171875 132.007813 L 52.5 132.007813 "/><g style="fill:rgb(0%,0%,0%);fill-opacity:1;"><use xlink:href="#pca-glyph2-0" x="26.617188" y="317.5"/><use xlink:href="#pca-glyph2-1" x="29.980566" y="317.5"/><use xlink:href="#pca-glyph2-2" x="35.597705" y="317.5"/><use xlink:href="#pca-glyph2-2" x="41.214844" y="317.5"/></g><g style="fill:rgb(0%,0%,0%);fill-opacity:1;"><use xlink:href="#pca-glyph2-0" x="26.617188" y="281.125"/><use xlink:href="#pca-glyph2-3" x="29.980566" y="281.125"/><use xlink:href="#pca-glyph2-2" x="35.597705" y="281.125"/><use xlink:href="#pca-glyph2-2" x="41.214844" y="281.125"/></g><g style="fill:rgb(0%,0%,0%);fill-opacity:1;"><use xlink:href="#pca-glyph2-0" x="26.617188" y="244.75"/><use xlink:href="#pca-glyph2-4" x="29.980566" y="244.75"/><use xlink:href="#pca-glyph2-2" x="35.597705" y="244.75"/><use xlink:href="#pca-glyph2-2" x="41.214844" y="244.75"/></g><g style="fill:rgb(0%,0%,0%);fill-opacity:1;"><use xlink:href="#pca-glyph2-2" x="41.214844" y="208.371094"/></g><g style="fill:rgb(0%,0%,0%);fill-opacity:1;"><use xlink:href="#pca-glyph2-4" x="29.980469" y="171.996094"/><use xlink:href="#pca-glyph2-2" x="35.597607" y="171.996094"/><use xlink:href="#pca-glyph2-2" x="41.214746" y="171.996094"/></g><g style="fill:rgb(0%,0%,0%);fill-opacity:1;"><use xlink:href="#pca-glyph2-3" x="29.980469" y="135.621094"/><use xlink:href="#pca-glyph2-2" x="35.597607" y="135.621094"/><use xlink:href="#pca-glyph2-2" x="41.214746" y="135.621094"/></g><path style="fill:none;stroke-width:1;stroke-linecap:round;stroke-linejoin:round;stroke:rgb(0%,0%,0%);stroke-opacity:1;stroke-miterlimit:10;" d="M 122.660156 319.734375 L 122.660156 325.40625 "/><path style="fill:none;stroke-width:1;stroke-linecap:round;stroke-linejoin:round;stroke:rgb(0%,0%,0%);stroke-opacity:1;stroke-miterlimit:10;" d="M 213.597656 319.734375 L 213.597656 325.40625 "/><path style="fill:none;stroke-width:1;stroke-linecap:round;stroke-linejoin:round;stroke:rgb(0%,0%,0%);stroke-opacity:1;stroke-miterlimit:10;" d="M 304.539063 319.734375 L 304.539063 325.40625 "/><g style="fill:rgb(0%,0%,0%);fill-opacity:1;"><use xlink:href="#pca-glyph2-0" x="112.554688" y="338.304688"/><use xlink:href="#pca-glyph2-5" x="115.918066" y="338.304688"/><use xlink:href="#pca-glyph2-2" x="121.535205" y="338.304688"/><use xlink:href="#pca-glyph2-2" x="127.152344" y="338.304688"/></g><g style="fill:rgb(0%,0%,0%);fill-opacity:1;"><use xlink:href="#pca-glyph2-2" x="210.789063" y="338.304688"/></g><g style="fill:rgb(0%,0%,0%);fill-opacity:1;"><use xlink:href="#pca-glyph2-5" x="296.113281" y="338.304688"/><use xlink:href="#pca-glyph2-2" x="301.73042" y="338.304688"/><use xlink:href="#pca-glyph2-2" x="307.347559" y="338.304688"/></g><path style="fill:none;stroke-width:1;stroke-linecap:round;stroke-linejoin:round;stroke:rgb(0%,0%,0%);stroke-opacity:1;stroke-miterlimit:10;" d="M 375.976563 313.886719 L 381.648438 313.886719 "/><path style="fill:none;stroke-width:1;stroke-linecap:round;stroke-linejoin:round;stroke:rgb(0%,0%,0%);stroke-opacity:1;stroke-miterlimit:10;" d="M 375.976563 277.507813 L 381.648438 277.507813 "/><path style="fill:none;stroke-width:1;stroke-linecap:round;stroke-linejoin:round;stroke:rgb(0%,0%,0%);stroke-opacity:1;stroke-miterlimit:10;" d="M 375.976563 241.132813 L 381.648438 241.132813 "/><path style="fill:none;stroke-width:1;stroke-linecap:round;stroke-linejoin:round;stroke:rgb(0%,0%,0%);stroke-opacity:1;stroke-miterlimit:10;" d="M 375.976563 204.757813 L 381.648438 204.757813 "/><path style="fill:none;stroke-width:1;stroke-linecap:round;stroke-linejoin:round;stroke:rgb(0%,0%,0%);stroke-opacity:1;stroke-miterlimit:10;" d="M 375.976563 168.382813 L 381.648438 168.382813 "/><path style="fill:none;stroke-width:1;stroke-linecap:round;stroke-linejoin:round;stroke:rgb(0%,0%,0%);stroke-opacity:1;stroke-miterlimit:10;" d="M 375.976563 132.007813 L 381.648438 132.007813 "/><g clip-path="url(#pca-clip1)" clip-rule="nonzero" type="plot-region" class="plot-region"><path d="M 102.828125 216.367188 C 102.828125 221.035156 95.828125 221.035156 95.828125 216.367188 C 95.828125 211.699219 102.828125 211.699219 102.828125 216.367188 " type="plot-point" class="aqm1" onclick="plotObjRespond('click', 1, 'pca')" onmouseover="plotObjRespond('show', 1, 'pca')" onmouseout="plotObjRespond('hide', 1, 'pca')" fill-rule="nonzero" fill="rgb(89.411765%,10.196078%,10.980392%)" fill-opacity="1" stroke-width="1" stroke-linecap="round" stroke-linejoin="round" stroke="rgb(89.411765%,10.196078%,10.980392%)" stroke-opacity="1" stroke-miterlimit="10"/><path d="M 259.378906 245.714844 C 259.378906 250.378906 252.378906 250.378906 252.378906 245.714844 C 252.378906 241.046875 259.378906 241.046875 259.378906 245.714844 " type="plot-point" class="aqm2" onclick="plotObjRespond('click', 2, 'pca')" onmouseover="plotObjRespond('show', 2, 'pca')" onmouseout="plotObjRespond('hide', 2, 'pca')" fill-rule="nonzero" fill="rgb(21.568627%,49.411765%,72.156863%)" fill-opacity="1" stroke-width="1" stroke-linecap="round" stroke-linejoin="round" stroke="rgb(21.568627%,49.411765%,72.156863%)" stroke-opacity="1" stroke-miterlimit="10"/><path d="M 147.132813 192.296875 C 147.132813 196.960938 140.132813 196.960938 140.132813 192.296875 C 140.132813 187.628906 147.132813 187.628906 147.132813 192.296875 " type="plot-point" class="aqm3" onclick="plotObjRespond('click', 3, 'pca')" onmouseover="plotObjRespond('show', 3, 'pca')" onmouseout="plotObjRespond('hide', 3, 'pca')" fill-rule="nonzero" fill="rgb(89.411765%,10.196078%,10.980392%)" fill-opacity="1" stroke-width="1" stroke-linecap="round" stroke-linejoin="round" stroke="rgb(89.411765%,10.196078%,10.980392%)" stroke-opacity="1" stroke-miterlimit="10"/><path d="M 238.3125 176.476563 C 238.3125 181.144531 231.3125 181.144531 231.3125 176.476563 C 231.3125 171.8125 238.3125 171.8125 238.3125 176.476563 " type="plot-point" class="aqm4" onclick="plotObjRespond('click', 4, 'pca')" onmouseover="plotObjRespond('show', 4, 'pca')" onmouseout="plotObjRespond('hide', 4, 'pca')" fill-rule="nonzero" fill="rgb(21.568627%,49.411765%,72.156863%)" fill-opacity="1" stroke-width="1" stroke-linecap="round" stroke-linejoin="round" stroke="rgb(21.568627%,49.411765%,72.156863%)" stroke-opacity="1" stroke-miterlimit="10"/><path d="M 186.433594 289.953125 C 186.433594 294.621094 179.433594 294.621094 179.433594 289.953125 C 179.433594 285.285156 186.433594 285.285156 186.433594 289.953125 " type="plot-point" class="aqm5" onclick="plotObjRespond('click', 5, 'pca')" onmouseover="plotObjRespond('show', 5, 'pca')" onmouseout="plotObjRespond('hide', 5, 'pca')" fill-rule="nonzero" fill="rgb(89.411765%,10.196078%,10.980392%)" fill-opacity="1" stroke-width="1" stroke-linecap="round" stroke-linejoin="round" stroke="rgb(89.411765%,10.196078%,10.980392%)" stroke-opacity="1" stroke-miterlimit="10"/><path d="M 239.8125 215.886719 C 239.8125 220.550781 232.8125 220.550781 232.8125 215.886719 C 232.8125 211.21875 239.8125 211.21875 239.8125 215.886719 " type="plot-point" class="aqm6" onclick="plotObjRespond('click', 6, 'pca')" onmouseover="plotObjRespond('show', 6, 'pca')" onmouseout="plotObjRespond('hide', 6, 'pca')" fill-rule="nonzero" fill="rgb(21.568627%,49.411765%,72.156863%)" fill-opacity="1" stroke-width="1" stroke-linecap="round" stroke-linejoin="round" stroke="rgb(21.568627%,49.411765%,72.156863%)" stroke-opacity="1" stroke-miterlimit="10"/><path d="M 245.695313 250.972656 C 245.695313 255.636719 238.695313 255.636719 238.695313 250.972656 C 238.695313 246.304688 245.695313 246.304688 245.695313 250.972656 " type="plot-point" class="aqm7" onclick="plotObjRespond('click', 7, 'pca')" onmouseover="plotObjRespond('show', 7, 'pca')" onmouseout="plotObjRespond('hide', 7, 'pca')" fill-rule="nonzero" fill="rgb(89.411765%,10.196078%,10.980392%)" fill-opacity="1" stroke-width="1" stroke-linecap="round" stroke-linejoin="round" stroke="rgb(89.411765%,10.196078%,10.980392%)" stroke-opacity="1" stroke-miterlimit="10"/><path d="M 247 240.671875 C 247 245.339844 240 245.339844 240 240.671875 C 240 236.007813 247 236.007813 247 240.671875 " type="plot-point" class="aqm8" onclick="plotObjRespond('click', 8, 'pca')" onmouseover="plotObjRespond('show', 8, 'pca')" onmouseout="plotObjRespond('hide', 8, 'pca')" fill-rule="nonzero" fill="rgb(21.568627%,49.411765%,72.156863%)" fill-opacity="1" stroke-width="1" stroke-linecap="round" stroke-linejoin="round" stroke="rgb(21.568627%,49.411765%,72.156863%)" stroke-opacity="1" stroke-miterlimit="10"/><path d="M 144.585938 188.136719 C 144.585938 192.800781 137.585938 192.800781 137.585938 188.136719 C 137.585938 183.46875 144.585938 183.46875 144.585938 188.136719 " type="plot-point" class="aqm9" onclick="plotObjRespond('click', 9, 'pca')" onmouseover="plotObjRespond('show', 9, 'pca')" onmouseout="plotObjRespond('hide', 9, 'pca')" fill-rule="nonzero" fill="rgb(89.411765%,10.196078%,10.980392%)" fill-opacity="1" stroke-width="1" stroke-linecap="round" stroke-linejoin="round" stroke="rgb(89.411765%,10.196078%,10.980392%)" stroke-opacity="1" stroke-miterlimit="10"/><path d="M 223.953125 185.265625 C 223.953125 189.933594 216.953125 189.933594 216.953125 185.265625 C 216.953125 180.601563 223.953125 180.601563 223.953125 185.265625 " type="plot-point" class="aqm10" onclick="plotObjRespond('click', 10, 'pca')" onmouseover="plotObjRespond('show', 10, 'pca')" onmouseout="plotObjRespond('hide', 10, 'pca')" fill-rule="nonzero" fill="rgb(21.568627%,49.411765%,72.156863%)" fill-opacity="1" stroke-width="1" stroke-linecap="round" stroke-linejoin="round" stroke="rgb(21.568627%,49.411765%,72.156863%)" stroke-opacity="1" stroke-miterlimit="10"/><path d="M 213.140625 201.871094 C 213.140625 206.539063 206.140625 206.539063 206.140625 201.871094 C 206.140625 197.207031 213.140625 197.207031 213.140625 201.871094 " type="plot-point" class="aqm11" onclick="plotObjRespond('click', 11, 'pca')" onmouseover="plotObjRespond('show', 11, 'pca')" onmouseout="plotObjRespond('hide', 11, 'pca')" fill-rule="nonzero" fill="rgb(89.411765%,10.196078%,10.980392%)" fill-opacity="1" stroke-width="1" stroke-linecap="round" stroke-linejoin="round" stroke="rgb(89.411765%,10.196078%,10.980392%)" stroke-opacity="1" stroke-miterlimit="10"/><path d="M 302.453125 206.949219 C 302.453125 211.617188 295.453125 211.617188 295.453125 206.949219 C 295.453125 202.285156 302.453125 202.285156 302.453125 206.949219 " type="plot-point" class="aqm12" onclick="plotObjRespond('click', 12, 'pca')" onmouseover="plotObjRespond('show', 12, 'pca')" onmouseout="plotObjRespond('hide', 12, 'pca')" fill-rule="nonzero" fill="rgb(21.568627%,49.411765%,72.156863%)" fill-opacity="1" stroke-width="1" stroke-linecap="round" stroke-linejoin="round" stroke="rgb(21.568627%,49.411765%,72.156863%)" stroke-opacity="1" stroke-miterlimit="10"/><path d="M 257.765625 240.796875 C 257.765625 245.460938 250.765625 245.460938 250.765625 240.796875 C 250.765625 236.128906 257.765625 236.128906 257.765625 240.796875 " type="plot-point" class="aqm13" onclick="plotObjRespond('click', 13, 'pca')" onmouseover="plotObjRespond('show', 13, 'pca')" onmouseout="plotObjRespond('hide', 13, 'pca')" fill-rule="nonzero" fill="rgb(89.411765%,10.196078%,10.980392%)" fill-opacity="1" stroke-width="1" stroke-linecap="round" stroke-linejoin="round" stroke="rgb(89.411765%,10.196078%,10.980392%)" stroke-opacity="1" stroke-miterlimit="10"/><path d="M 256.011719 162.769531 C 256.011719 167.4375 249.011719 167.4375 249.011719 162.769531 C 249.011719 158.105469 256.011719 158.105469 256.011719 162.769531 " type="plot-point" class="aqm14" onclick="plotObjRespond('click', 14, 'pca')" onmouseover="plotObjRespond('show', 14, 'pca')" onmouseout="plotObjRespond('hide', 14, 'pca')" fill-rule="nonzero" fill="rgb(21.568627%,49.411765%,72.156863%)" fill-opacity="1" stroke-width="1" stroke-linecap="round" stroke-linejoin="round" stroke="rgb(21.568627%,49.411765%,72.156863%)" stroke-opacity="1" stroke-miterlimit="10"/><path d="M 230.507813 242.265625 C 230.507813 246.933594 223.507813 246.933594 223.507813 242.265625 C 223.507813 237.597656 230.507813 237.597656 230.507813 242.265625 " type="plot-point" class="aqm15" onclick="plotObjRespond('click', 15, 'pca')" onmouseover="plotObjRespond('show', 15, 'pca')" onmouseout="plotObjRespond('hide', 15, 'pca')" fill-rule="nonzero" fill="rgb(89.411765%,10.196078%,10.980392%)" fill-opacity="1" stroke-width="1" stroke-linecap="round" stroke-linejoin="round" stroke="rgb(89.411765%,10.196078%,10.980392%)" stroke-opacity="1" stroke-miterlimit="10"/><path d="M 218.238281 195.964844 C 218.238281 200.628906 211.238281 200.628906 211.238281 195.964844 C 211.238281 191.296875 218.238281 191.296875 218.238281 195.964844 " type="plot-point" class="aqm16" onclick="plotObjRespond('click', 16, 'pca')" onmouseover="plotObjRespond('show', 16, 'pca')" onmouseout="plotObjRespond('hide', 16, 'pca')" fill-rule="nonzero" fill="rgb(21.568627%,49.411765%,72.156863%)" fill-opacity="1" stroke-width="1" stroke-linecap="round" stroke-linejoin="round" stroke="rgb(21.568627%,49.411765%,72.156863%)" stroke-opacity="1" stroke-miterlimit="10"/><path d="M 242.347656 200.570313 C 242.347656 205.238281 235.347656 205.238281 235.347656 200.570313 C 235.347656 195.902344 242.347656 195.902344 242.347656 200.570313 " type="plot-point" class="aqm17" onclick="plotObjRespond('click', 17, 'pca')" onmouseover="plotObjRespond('show', 17, 'pca')" onmouseout="plotObjRespond('hide', 17, 'pca')" fill-rule="nonzero" fill="rgb(89.411765%,10.196078%,10.980392%)" fill-opacity="1" stroke-width="1" stroke-linecap="round" stroke-linejoin="round" stroke="rgb(89.411765%,10.196078%,10.980392%)" stroke-opacity="1" stroke-miterlimit="10"/><path d="M 240.863281 154.726563 C 240.863281 159.394531 233.863281 159.394531 233.863281 154.726563 C 233.863281 150.0625 240.863281 150.0625 240.863281 154.726563 " type="plot-point" class="aqm18" onclick="plotObjRespond('click', 18, 'pca')" onmouseover="plotObjRespond('show', 18, 'pca')" onmouseout="plotObjRespond('hide', 18, 'pca')" fill-rule="nonzero" fill="rgb(21.568627%,49.411765%,72.156863%)" fill-opacity="1" stroke-width="1" stroke-linecap="round" stroke-linejoin="round" stroke="rgb(21.568627%,49.411765%,72.156863%)" stroke-opacity="1" stroke-miterlimit="10"/><path d="M 81.183594 168.632813 C 81.183594 173.300781 74.183594 173.300781 74.183594 168.632813 C 74.183594 163.96875 81.183594 163.96875 81.183594 168.632813 " type="plot-point" class="aqm19" onclick="plotObjRespond('click', 19, 'pca')" onmouseover="plotObjRespond('show', 19, 'pca')" onmouseout="plotObjRespond('hide', 19, 'pca')" fill-rule="nonzero" fill="rgb(89.411765%,10.196078%,10.980392%)" fill-opacity="1" stroke-width="1" stroke-linecap="round" stroke-linejoin="round" stroke="rgb(89.411765%,10.196078%,10.980392%)" stroke-opacity="1" stroke-miterlimit="10"/><path d="M 192.960938 161.523438 C 192.960938 166.191406 185.960938 166.191406 185.960938 161.523438 C 185.960938 156.859375 192.960938 156.859375 192.960938 161.523438 " type="plot-point" class="aqm20" onclick="plotObjRespond('click', 20, 'pca')" onmouseover="plotObjRespond('show', 20, 'pca')" onmouseout="plotObjRespond('hide', 20, 'pca')" fill-rule="nonzero" fill="rgb(21.568627%,49.411765%,72.156863%)" fill-opacity="1" stroke-width="1" stroke-linecap="round" stroke-linejoin="round" stroke="rgb(21.568627%,49.411765%,72.156863%)" stroke-opacity="1" stroke-miterlimit="10"/><path d="M 168.585938 225.238281 C 168.585938 229.90625 161.585938 229.90625 161.585938 225.238281 C 161.585938 220.570313 168.585938 220.570313 168.585938 225.238281 " type="plot-point" class="aqm21" onclick="plotObjRespond('click', 21, 'pca')" onmouseover="plotObjRespond('show', 21, 'pca')" onmouseout="plotObjRespond('hide', 21, 'pca')" fill-rule="nonzero" fill="rgb(89.411765%,10.196078%,10.980392%)" fill-opacity="1" stroke-width="1" stroke-linecap="round" stroke-linejoin="round" stroke="rgb(89.411765%,10.196078%,10.980392%)" stroke-opacity="1" stroke-miterlimit="10"/><path d="M 202.746094 137.242188 C 202.746094 141.910156 195.746094 141.910156 195.746094 137.242188 C 195.746094 132.574219 202.746094 132.574219 202.746094 137.242188 " type="plot-point" class="aqm22" onclick="plotObjRespond('click', 22, 'pca')" onmouseover="plotObjRespond('show', 22, 'pca')" onmouseout="plotObjRespond('hide', 22, 'pca')" fill-rule="nonzero" fill="rgb(21.568627%,49.411765%,72.156863%)" fill-opacity="1" stroke-width="1" stroke-linecap="round" stroke-linejoin="round" stroke="rgb(21.568627%,49.411765%,72.156863%)" stroke-opacity="1" stroke-miterlimit="10"/><path d="M 254.78125 201.921875 C 254.78125 206.585938 247.78125 206.585938 247.78125 201.921875 C 247.78125 197.253906 254.78125 197.253906 254.78125 201.921875 " type="plot-point" class="aqm23" onclick="plotObjRespond('click', 23, 'pca')" onmouseover="plotObjRespond('show', 23, 'pca')" onmouseout="plotObjRespond('hide', 23, 'pca')" fill-rule="nonzero" fill="rgb(89.411765%,10.196078%,10.980392%)" fill-opacity="1" stroke-width="1" stroke-linecap="round" stroke-linejoin="round" stroke="rgb(89.411765%,10.196078%,10.980392%)" stroke-opacity="1" stroke-miterlimit="10"/><path d="M 271.945313 185.238281 C 271.945313 189.90625 264.945313 189.90625 264.945313 185.238281 C 264.945313 180.574219 271.945313 180.574219 271.945313 185.238281 " type="plot-point" class="aqm24" onclick="plotObjRespond('click', 24, 'pca')" onmouseover="plotObjRespond('show', 24, 'pca')" onmouseout="plotObjRespond('hide', 24, 'pca')" fill-rule="nonzero" fill="rgb(21.568627%,49.411765%,72.156863%)" fill-opacity="1" stroke-width="1" stroke-linecap="round" stroke-linejoin="round" stroke="rgb(21.568627%,49.411765%,72.156863%)" stroke-opacity="1" stroke-miterlimit="10"/><path d="M 179.527344 215.355469 C 179.527344 220.019531 172.527344 220.019531 172.527344 215.355469 C 172.527344 210.6875 179.527344 210.6875 179.527344 215.355469 " type="plot-point" class="aqm25" onclick="plotObjRespond('click', 25, 'pca')" onmouseover="plotObjRespond('show', 25, 'pca')" onmouseout="plotObjRespond('hide', 25, 'pca')" fill-rule="nonzero" fill="rgb(89.411765%,10.196078%,10.980392%)" fill-opacity="1" stroke-width="1" stroke-linecap="round" stroke-linejoin="round" stroke="rgb(89.411765%,10.196078%,10.980392%)" stroke-opacity="1" stroke-miterlimit="10"/><path d="M 238.277344 206.828125 C 238.277344 211.496094 231.277344 211.496094 231.277344 206.828125 C 231.277344 202.160156 238.277344 202.160156 238.277344 206.828125 " type="plot-point" class="aqm26" onclick="plotObjRespond('click', 26, 'pca')" onmouseover="plotObjRespond('show', 26, 'pca')" onmouseout="plotObjRespond('hide', 26, 'pca')" fill-rule="nonzero" fill="rgb(21.568627%,49.411765%,72.156863%)" fill-opacity="1" stroke-width="1" stroke-linecap="round" stroke-linejoin="round" stroke="rgb(21.568627%,49.411765%,72.156863%)" stroke-opacity="1" stroke-miterlimit="10"/><path d="M 102.085938 190.289063 C 102.085938 194.957031 95.085938 194.957031 95.085938 190.289063 C 95.085938 185.625 102.085938 185.625 102.085938 190.289063 " type="plot-point" class="aqm27" onclick="plotObjRespond('click', 27, 'pca')" onmouseover="plotObjRespond('show', 27, 'pca')" onmouseout="plotObjRespond('hide', 27, 'pca')" fill-rule="nonzero" fill="rgb(89.411765%,10.196078%,10.980392%)" fill-opacity="1" stroke-width="1" stroke-linecap="round" stroke-linejoin="round" stroke="rgb(89.411765%,10.196078%,10.980392%)" stroke-opacity="1" stroke-miterlimit="10"/><path d="M 205.464844 202.730469 C 205.464844 207.398438 198.464844 207.398438 198.464844 202.730469 C 198.464844 198.066406 205.464844 198.066406 205.464844 202.730469 " type="plot-point" class="aqm28" onclick="plotObjRespond('click', 28, 'pca')" onmouseover="plotObjRespond('show', 28, 'pca')" onmouseout="plotObjRespond('hide', 28, 'pca')" fill-rule="nonzero" fill="rgb(21.568627%,49.411765%,72.156863%)" fill-opacity="1" stroke-width="1" stroke-linecap="round" stroke-linejoin="round" stroke="rgb(21.568627%,49.411765%,72.156863%)" stroke-opacity="1" stroke-miterlimit="10"/><path d="M 122.476563 184.570313 C 122.476563 189.238281 115.476563 189.238281 115.476563 184.570313 C 115.476563 179.90625 122.476563 179.90625 122.476563 184.570313 " type="plot-point" class="aqm29" onclick="plotObjRespond('click', 29, 'pca')" onmouseover="plotObjRespond('show', 29, 'pca')" onmouseout="plotObjRespond('hide', 29, 'pca')" fill-rule="nonzero" fill="rgb(89.411765%,10.196078%,10.980392%)" fill-opacity="1" stroke-width="1" stroke-linecap="round" stroke-linejoin="round" stroke="rgb(89.411765%,10.196078%,10.980392%)" stroke-opacity="1" stroke-miterlimit="10"/><path d="M 142.988281 133.699219 C 142.988281 138.367188 135.988281 138.367188 135.988281 133.699219 C 135.988281 129.03125 142.988281 129.03125 142.988281 133.699219 " type="plot-point" class="aqm30" onclick="plotObjRespond('click', 30, 'pca')" onmouseover="plotObjRespond('show', 30, 'pca')" onmouseout="plotObjRespond('hide', 30, 'pca')" fill-rule="nonzero" fill="rgb(21.568627%,49.411765%,72.156863%)" fill-opacity="1" stroke-width="1" stroke-linecap="round" stroke-linejoin="round" stroke="rgb(21.568627%,49.411765%,72.156863%)" stroke-opacity="1" stroke-miterlimit="10"/><path d="M 187.066406 207.148438 C 187.066406 211.816406 180.066406 211.816406 180.066406 207.148438 C 180.066406 202.484375 187.066406 202.484375 187.066406 207.148438 " type="plot-point" class="aqm31" onclick="plotObjRespond('click', 31, 'pca')" onmouseover="plotObjRespond('show', 31, 'pca')" onmouseout="plotObjRespond('hide', 31, 'pca')" fill-rule="nonzero" fill="rgb(89.411765%,10.196078%,10.980392%)" fill-opacity="1" stroke-width="1" stroke-linecap="round" stroke-linejoin="round" stroke="rgb(89.411765%,10.196078%,10.980392%)" stroke-opacity="1" stroke-miterlimit="10"/><path d="M 312.164063 212.816406 C 312.164063 217.484375 305.164063 217.484375 305.164063 212.816406 C 305.164063 208.148438 312.164063 208.148438 312.164063 212.816406 " type="plot-point" class="aqm32" onclick="plotObjRespond('click', 32, 'pca')" onmouseover="plotObjRespond('show', 32, 'pca')" onmouseout="plotObjRespond('hide', 32, 'pca')" fill-rule="nonzero" fill="rgb(21.568627%,49.411765%,72.156863%)" fill-opacity="1" stroke-width="1" stroke-linecap="round" stroke-linejoin="round" stroke="rgb(21.568627%,49.411765%,72.156863%)" stroke-opacity="1" stroke-miterlimit="10"/><path d="M 135.625 217.578125 C 135.625 222.246094 128.625 222.246094 128.625 217.578125 C 128.625 212.910156 135.625 212.910156 135.625 217.578125 " type="plot-point" class="aqm33" onclick="plotObjRespond('click', 33, 'pca')" onmouseover="plotObjRespond('show', 33, 'pca')" onmouseout="plotObjRespond('hide', 33, 'pca')" fill-rule="nonzero" fill="rgb(89.411765%,10.196078%,10.980392%)" fill-opacity="1" stroke-width="1" stroke-linecap="round" stroke-linejoin="round" stroke="rgb(89.411765%,10.196078%,10.980392%)" stroke-opacity="1" stroke-miterlimit="10"/><path d="M 238.558594 169.554688 C 238.558594 174.222656 231.558594 174.222656 231.558594 169.554688 C 231.558594 164.890625 238.558594 164.890625 238.558594 169.554688 " type="plot-point" class="aqm34" onclick="plotObjRespond('click', 34, 'pca')" onmouseover="plotObjRespond('show', 34, 'pca')" onmouseout="plotObjRespond('hide', 34, 'pca')" fill-rule="nonzero" fill="rgb(21.568627%,49.411765%,72.156863%)" fill-opacity="1" stroke-width="1" stroke-linecap="round" stroke-linejoin="round" stroke="rgb(21.568627%,49.411765%,72.156863%)" stroke-opacity="1" stroke-miterlimit="10"/><path d="M 215.882813 208.316406 C 215.882813 212.984375 208.882813 212.984375 208.882813 208.316406 C 208.882813 203.648438 215.882813 203.648438 215.882813 208.316406 " type="plot-point" class="aqm35" onclick="plotObjRespond('click', 35, 'pca')" onmouseover="plotObjRespond('show', 35, 'pca')" onmouseout="plotObjRespond('hide', 35, 'pca')" fill-rule="nonzero" fill="rgb(89.411765%,10.196078%,10.980392%)" fill-opacity="1" stroke-width="1" stroke-linecap="round" stroke-linejoin="round" stroke="rgb(89.411765%,10.196078%,10.980392%)" stroke-opacity="1" stroke-miterlimit="10"/><path d="M 251.539063 174.578125 C 251.539063 179.242188 244.539063 179.242188 244.539063 174.578125 C 244.539063 169.910156 251.539063 169.910156 251.539063 174.578125 " type="plot-point" class="aqm36" onclick="plotObjRespond('click', 36, 'pca')" onmouseover="plotObjRespond('show', 36, 'pca')" onmouseout="plotObjRespond('hide', 36, 'pca')" fill-rule="nonzero" fill="rgb(21.568627%,49.411765%,72.156863%)" fill-opacity="1" stroke-width="1" stroke-linecap="round" stroke-linejoin="round" stroke="rgb(21.568627%,49.411765%,72.156863%)" stroke-opacity="1" stroke-miterlimit="10"/><path d="M 252.414063 174.566406 C 252.414063 179.234375 245.414063 179.234375 245.414063 174.566406 C 245.414063 169.902344 252.414063 169.902344 252.414063 174.566406 " type="plot-point" class="aqm37" onclick="plotObjRespond('click', 37, 'pca')" onmouseover="plotObjRespond('show', 37, 'pca')" onmouseout="plotObjRespond('hide', 37, 'pca')" fill-rule="nonzero" fill="rgb(89.411765%,10.196078%,10.980392%)" fill-opacity="1" stroke-width="1" stroke-linecap="round" stroke-linejoin="round" stroke="rgb(89.411765%,10.196078%,10.980392%)" stroke-opacity="1" stroke-miterlimit="10"/><path d="M 223 182.523438 C 223 187.191406 216 187.191406 216 182.523438 C 216 177.855469 223 177.855469 223 182.523438 " type="plot-point" class="aqm38" onclick="plotObjRespond('click', 38, 'pca')" onmouseover="plotObjRespond('show', 38, 'pca')" onmouseout="plotObjRespond('hide', 38, 'pca')" fill-rule="nonzero" fill="rgb(21.568627%,49.411765%,72.156863%)" fill-opacity="1" stroke-width="1" stroke-linecap="round" stroke-linejoin="round" stroke="rgb(21.568627%,49.411765%,72.156863%)" stroke-opacity="1" stroke-miterlimit="10"/><path d="M 240.441406 209.234375 C 240.441406 213.902344 233.441406 213.902344 233.441406 209.234375 C 233.441406 204.570313 240.441406 204.570313 240.441406 209.234375 " type="plot-point" class="aqm39" onclick="plotObjRespond('click', 39, 'pca')" onmouseover="plotObjRespond('show', 39, 'pca')" onmouseout="plotObjRespond('hide', 39, 'pca')" fill-rule="nonzero" fill="rgb(89.411765%,10.196078%,10.980392%)" fill-opacity="1" stroke-width="1" stroke-linecap="round" stroke-linejoin="round" stroke="rgb(89.411765%,10.196078%,10.980392%)" stroke-opacity="1" stroke-miterlimit="10"/><path d="M 293.222656 169.65625 C 293.222656 174.324219 286.222656 174.324219 286.222656 169.65625 C 286.222656 164.992188 293.222656 164.992188 293.222656 169.65625 " type="plot-point" class="aqm40" onclick="plotObjRespond('click', 40, 'pca')" onmouseover="plotObjRespond('show', 40, 'pca')" onmouseout="plotObjRespond('hide', 40, 'pca')" fill-rule="nonzero" fill="rgb(21.568627%,49.411765%,72.156863%)" fill-opacity="1" stroke-width="1" stroke-linecap="round" stroke-linejoin="round" stroke="rgb(21.568627%,49.411765%,72.156863%)" stroke-opacity="1" stroke-miterlimit="10"/><path d="M 151.023438 219.941406 C 151.023438 224.609375 144.023438 224.609375 144.023438 219.941406 C 144.023438 215.277344 151.023438 215.277344 151.023438 219.941406 " type="plot-point" class="aqm41" onclick="plotObjRespond('click', 41, 'pca')" onmouseover="plotObjRespond('show', 41, 'pca')" onmouseout="plotObjRespond('hide', 41, 'pca')" fill-rule="nonzero" fill="rgb(89.411765%,10.196078%,10.980392%)" fill-opacity="1" stroke-width="1" stroke-linecap="round" stroke-linejoin="round" stroke="rgb(89.411765%,10.196078%,10.980392%)" stroke-opacity="1" stroke-miterlimit="10"/><path d="M 175.035156 166.902344 C 175.035156 171.566406 168.035156 171.566406 168.035156 166.902344 C 168.035156 162.234375 175.035156 162.234375 175.035156 166.902344 " type="plot-point" class="aqm42" onclick="plotObjRespond('click', 42, 'pca')" onmouseover="plotObjRespond('show', 42, 'pca')" onmouseout="plotObjRespond('hide', 42, 'pca')" fill-rule="nonzero" fill="rgb(21.568627%,49.411765%,72.156863%)" fill-opacity="1" stroke-width="1" stroke-linecap="round" stroke-linejoin="round" stroke="rgb(21.568627%,49.411765%,72.156863%)" stroke-opacity="1" stroke-miterlimit="10"/><path d="M 217.335938 154.261719 C 217.335938 158.925781 210.335938 158.925781 210.335938 154.261719 C 210.335938 149.59375 217.335938 149.59375 217.335938 154.261719 " type="plot-point" class="aqm43" onclick="plotObjRespond('click', 43, 'pca')" onmouseover="plotObjRespond('show', 43, 'pca')" onmouseout="plotObjRespond('hide', 43, 'pca')" fill-rule="nonzero" fill="rgb(89.411765%,10.196078%,10.980392%)" fill-opacity="1" stroke-width="1" stroke-linecap="round" stroke-linejoin="round" stroke="rgb(89.411765%,10.196078%,10.980392%)" stroke-opacity="1" stroke-miterlimit="10"/><path d="M 312.25 172.664063 C 312.25 177.332031 305.25 177.332031 305.25 172.664063 C 305.25 168 312.25 168 312.25 172.664063 " type="plot-point" class="aqm44" onclick="plotObjRespond('click', 44, 'pca')" onmouseover="plotObjRespond('show', 44, 'pca')" onmouseout="plotObjRespond('hide', 44, 'pca')" fill-rule="nonzero" fill="rgb(21.568627%,49.411765%,72.156863%)" fill-opacity="1" stroke-width="1" stroke-linecap="round" stroke-linejoin="round" stroke="rgb(21.568627%,49.411765%,72.156863%)" stroke-opacity="1" stroke-miterlimit="10"/><path d="M 268.609375 218.796875 C 268.609375 223.464844 261.609375 223.464844 261.609375 218.796875 C 261.609375 214.128906 268.609375 214.128906 268.609375 218.796875 " type="plot-point" class="aqm45" onclick="plotObjRespond('click', 45, 'pca')" onmouseover="plotObjRespond('show', 45, 'pca')" onmouseout="plotObjRespond('hide', 45, 'pca')" fill-rule="nonzero" fill="rgb(89.411765%,10.196078%,10.980392%)" fill-opacity="1" stroke-width="1" stroke-linecap="round" stroke-linejoin="round" stroke="rgb(89.411765%,10.196078%,10.980392%)" stroke-opacity="1" stroke-miterlimit="10"/><path d="M 282.296875 200.917969 C 282.296875 205.585938 275.296875 205.585938 275.296875 200.917969 C 275.296875 196.25 282.296875 196.25 282.296875 200.917969 " type="plot-point" class="aqm46" onclick="plotObjRespond('click', 46, 'pca')" onmouseover="plotObjRespond('show', 46, 'pca')" onmouseout="plotObjRespond('hide', 46, 'pca')" fill-rule="nonzero" fill="rgb(21.568627%,49.411765%,72.156863%)" fill-opacity="1" stroke-width="1" stroke-linecap="round" stroke-linejoin="round" stroke="rgb(21.568627%,49.411765%,72.156863%)" stroke-opacity="1" stroke-miterlimit="10"/><path d="M 215.320313 307.566406 C 215.320313 312.230469 208.320313 312.230469 208.320313 307.566406 C 208.320313 302.898438 215.320313 302.898438 215.320313 307.566406 " type="plot-point" class="aqm47" onclick="plotObjRespond('click', 47, 'pca')" onmouseover="plotObjRespond('show', 47, 'pca')" onmouseout="plotObjRespond('hide', 47, 'pca')" fill-rule="nonzero" fill="rgb(89.411765%,10.196078%,10.980392%)" fill-opacity="1" stroke-width="1" stroke-linecap="round" stroke-linejoin="round" stroke="rgb(89.411765%,10.196078%,10.980392%)" stroke-opacity="1" stroke-miterlimit="10"/><path d="M 191.800781 289.074219 C 191.800781 293.742188 184.800781 293.742188 184.800781 289.074219 C 184.800781 284.40625 191.800781 284.40625 191.800781 289.074219 " type="plot-point" class="aqm48" onclick="plotObjRespond('click', 48, 'pca')" onmouseover="plotObjRespond('show', 48, 'pca')" onmouseout="plotObjRespond('hide', 48, 'pca')" fill-rule="nonzero" fill="rgb(21.568627%,49.411765%,72.156863%)" fill-opacity="1" stroke-width="1" stroke-linecap="round" stroke-linejoin="round" stroke="rgb(21.568627%,49.411765%,72.156863%)" stroke-opacity="1" stroke-miterlimit="10"/><path d="M 178.203125 239.824219 C 178.203125 244.492188 171.203125 244.492188 171.203125 239.824219 C 171.203125 235.160156 178.203125 235.160156 178.203125 239.824219 " type="plot-point" class="aqm49" onclick="plotObjRespond('click', 49, 'pca')" onmouseover="plotObjRespond('show', 49, 'pca')" onmouseout="plotObjRespond('hide', 49, 'pca')" fill-rule="nonzero" fill="rgb(89.411765%,10.196078%,10.980392%)" fill-opacity="1" stroke-width="1" stroke-linecap="round" stroke-linejoin="round" stroke="rgb(89.411765%,10.196078%,10.980392%)" stroke-opacity="1" stroke-miterlimit="10"/><path d="M 135.351563 142.976563 C 135.351563 147.644531 128.351563 147.644531 128.351563 142.976563 C 128.351563 138.308594 135.351563 138.308594 135.351563 142.976563 " type="plot-point" class="aqm50" onclick="plotObjRespond('click', 50, 'pca')" onmouseover="plotObjRespond('show', 50, 'pca')" onmouseout="plotObjRespond('hide', 50, 'pca')" fill-rule="nonzero" fill="rgb(21.568627%,49.411765%,72.156863%)" fill-opacity="1" stroke-width="1" stroke-linecap="round" stroke-linejoin="round" stroke="rgb(21.568627%,49.411765%,72.156863%)" stroke-opacity="1" stroke-miterlimit="10"/><path d="M 268.761719 171.757813 C 268.761719 176.421875 261.761719 176.421875 261.761719 171.757813 C 261.761719 167.089844 268.761719 167.089844 268.761719 171.757813 " type="plot-point" class="aqm51" onclick="plotObjRespond('click', 51, 'pca')" onmouseover="plotObjRespond('show', 51, 'pca')" onmouseout="plotObjRespond('hide', 51, 'pca')" fill-rule="nonzero" fill="rgb(89.411765%,10.196078%,10.980392%)" fill-opacity="1" stroke-width="1" stroke-linecap="round" stroke-linejoin="round" stroke="rgb(89.411765%,10.196078%,10.980392%)" stroke-opacity="1" stroke-miterlimit="10"/><path d="M 263.722656 204.816406 C 263.722656 209.484375 256.722656 209.484375 256.722656 204.816406 C 256.722656 200.148438 263.722656 200.148438 263.722656 204.816406 " type="plot-point" class="aqm52" onclick="plotObjRespond('click', 52, 'pca')" onmouseover="plotObjRespond('show', 52, 'pca')" onmouseout="plotObjRespond('hide', 52, 'pca')" fill-rule="nonzero" fill="rgb(21.568627%,49.411765%,72.156863%)" fill-opacity="1" stroke-width="1" stroke-linecap="round" stroke-linejoin="round" stroke="rgb(21.568627%,49.411765%,72.156863%)" stroke-opacity="1" stroke-miterlimit="10"/><path d="M 151.957031 242.230469 C 151.957031 246.898438 144.957031 246.898438 144.957031 242.230469 C 144.957031 237.5625 151.957031 237.5625 151.957031 242.230469 " type="plot-point" class="aqm53" onclick="plotObjRespond('click', 53, 'pca')" onmouseover="plotObjRespond('show', 53, 'pca')" onmouseout="plotObjRespond('hide', 53, 'pca')" fill-rule="nonzero" fill="rgb(89.411765%,10.196078%,10.980392%)" fill-opacity="1" stroke-width="1" stroke-linecap="round" stroke-linejoin="round" stroke="rgb(89.411765%,10.196078%,10.980392%)" stroke-opacity="1" stroke-miterlimit="10"/><path d="M 214.21875 209.121094 C 214.21875 213.785156 207.21875 213.785156 207.21875 209.121094 C 207.21875 204.453125 214.21875 204.453125 214.21875 209.121094 " type="plot-point" class="aqm54" onclick="plotObjRespond('click', 54, 'pca')" onmouseover="plotObjRespond('show', 54, 'pca')" onmouseout="plotObjRespond('hide', 54, 'pca')" fill-rule="nonzero" fill="rgb(21.568627%,49.411765%,72.156863%)" fill-opacity="1" stroke-width="1" stroke-linecap="round" stroke-linejoin="round" stroke="rgb(21.568627%,49.411765%,72.156863%)" stroke-opacity="1" stroke-miterlimit="10"/><path d="M 254.582031 179.832031 C 254.582031 184.496094 247.582031 184.496094 247.582031 179.832031 C 247.582031 175.164063 254.582031 175.164063 254.582031 179.832031 " type="plot-point" class="aqm55" onclick="plotObjRespond('click', 55, 'pca')" onmouseover="plotObjRespond('show', 55, 'pca')" onmouseout="plotObjRespond('hide', 55, 'pca')" fill-rule="nonzero" fill="rgb(89.411765%,10.196078%,10.980392%)" fill-opacity="1" stroke-width="1" stroke-linecap="round" stroke-linejoin="round" stroke="rgb(89.411765%,10.196078%,10.980392%)" stroke-opacity="1" stroke-miterlimit="10"/><path d="M 359.964844 193.894531 C 359.964844 198.558594 352.964844 198.558594 352.964844 193.894531 C 352.964844 189.226563 359.964844 189.226563 359.964844 193.894531 " type="plot-point" class="aqm56" onclick="plotObjRespond('click', 56, 'pca')" onmouseover="plotObjRespond('show', 56, 'pca')" onmouseout="plotObjRespond('hide', 56, 'pca')" fill-rule="nonzero" fill="rgb(21.568627%,49.411765%,72.156863%)" fill-opacity="1" stroke-width="1" stroke-linecap="round" stroke-linejoin="round" stroke="rgb(21.568627%,49.411765%,72.156863%)" stroke-opacity="1" stroke-miterlimit="10"/><path d="M 218.039063 306.765625 C 218.039063 311.429688 211.039063 311.429688 211.039063 306.765625 C 211.039063 302.097656 218.039063 302.097656 218.039063 306.765625 " type="plot-point" class="aqm57" onclick="plotObjRespond('click', 57, 'pca')" onmouseover="plotObjRespond('show', 57, 'pca')" onmouseout="plotObjRespond('hide', 57, 'pca')" fill-rule="nonzero" fill="rgb(89.411765%,10.196078%,10.980392%)" fill-opacity="1" stroke-width="1" stroke-linecap="round" stroke-linejoin="round" stroke="rgb(89.411765%,10.196078%,10.980392%)" stroke-opacity="1" stroke-miterlimit="10"/><path d="M 283.910156 249.175781 C 283.910156 253.84375 276.910156 253.84375 276.910156 249.175781 C 276.910156 244.511719 283.910156 244.511719 283.910156 249.175781 " type="plot-point" class="aqm58" onclick="plotObjRespond('click', 58, 'pca')" onmouseover="plotObjRespond('show', 58, 'pca')" onmouseout="plotObjRespond('hide', 58, 'pca')" fill-rule="nonzero" fill="rgb(21.568627%,49.411765%,72.156863%)" fill-opacity="1" stroke-width="1" stroke-linecap="round" stroke-linejoin="round" stroke="rgb(21.568627%,49.411765%,72.156863%)" stroke-opacity="1" stroke-miterlimit="10"/><path d="M 269.304688 220.359375 C 269.304688 225.023438 262.304688 225.023438 262.304688 220.359375 C 262.304688 215.691406 269.304688 215.691406 269.304688 220.359375 " type="plot-point" class="aqm59" onclick="plotObjRespond('click', 59, 'pca')" onmouseover="plotObjRespond('show', 59, 'pca')" onmouseout="plotObjRespond('hide', 59, 'pca')" fill-rule="nonzero" fill="rgb(89.411765%,10.196078%,10.980392%)" fill-opacity="1" stroke-width="1" stroke-linecap="round" stroke-linejoin="round" stroke="rgb(89.411765%,10.196078%,10.980392%)" stroke-opacity="1" stroke-miterlimit="10"/><path d="M 264.734375 200.578125 C 264.734375 205.246094 257.734375 205.246094 257.734375 200.578125 C 257.734375 195.910156 264.734375 195.910156 264.734375 200.578125 " type="plot-point" class="aqm60" onclick="plotObjRespond('click', 60, 'pca')" onmouseover="plotObjRespond('show', 60, 'pca')" onmouseout="plotObjRespond('hide', 60, 'pca')" fill-rule="nonzero" fill="rgb(21.568627%,49.411765%,72.156863%)" fill-opacity="1" stroke-width="1" stroke-linecap="round" stroke-linejoin="round" stroke="rgb(21.568627%,49.411765%,72.156863%)" stroke-opacity="1" stroke-miterlimit="10"/><path d="M 156.40625 237.078125 C 156.40625 241.742188 149.40625 241.742188 149.40625 237.078125 C 149.40625 232.410156 156.40625 232.410156 156.40625 237.078125 " type="plot-point" class="aqm61" onclick="plotObjRespond('click', 61, 'pca')" onmouseover="plotObjRespond('show', 61, 'pca')" onmouseout="plotObjRespond('hide', 61, 'pca')" fill-rule="nonzero" fill="rgb(89.411765%,10.196078%,10.980392%)" fill-opacity="1" stroke-width="1" stroke-linecap="round" stroke-linejoin="round" stroke="rgb(89.411765%,10.196078%,10.980392%)" stroke-opacity="1" stroke-miterlimit="10"/><path d="M 182.871094 178.019531 C 182.871094 182.6875 175.871094 182.6875 175.871094 178.019531 C 175.871094 173.351563 182.871094 173.351563 182.871094 178.019531 " type="plot-point" class="aqm62" onclick="plotObjRespond('click', 62, 'pca')" onmouseover="plotObjRespond('show', 62, 'pca')" onmouseout="plotObjRespond('hide', 62, 'pca')" fill-rule="nonzero" fill="rgb(21.568627%,49.411765%,72.156863%)" fill-opacity="1" stroke-width="1" stroke-linecap="round" stroke-linejoin="round" stroke="rgb(21.568627%,49.411765%,72.156863%)" stroke-opacity="1" stroke-miterlimit="10"/><path d="M 170.511719 222.960938 C 170.511719 227.625 163.511719 227.625 163.511719 222.960938 C 163.511719 218.292969 170.511719 218.292969 170.511719 222.960938 " type="plot-point" class="aqm63" onclick="plotObjRespond('click', 63, 'pca')" onmouseover="plotObjRespond('show', 63, 'pca')" onmouseout="plotObjRespond('hide', 63, 'pca')" fill-rule="nonzero" fill="rgb(89.411765%,10.196078%,10.980392%)" fill-opacity="1" stroke-width="1" stroke-linecap="round" stroke-linejoin="round" stroke="rgb(89.411765%,10.196078%,10.980392%)" stroke-opacity="1" stroke-miterlimit="10"/><path d="M 260.347656 178.085938 C 260.347656 182.753906 253.347656 182.753906 253.347656 178.085938 C 253.347656 173.417969 260.347656 173.417969 260.347656 178.085938 " type="plot-point" class="aqm64" onclick="plotObjRespond('click', 64, 'pca')" onmouseover="plotObjRespond('show', 64, 'pca')" onmouseout="plotObjRespond('hide', 64, 'pca')" fill-rule="nonzero" fill="rgb(21.568627%,49.411765%,72.156863%)" fill-opacity="1" stroke-width="1" stroke-linecap="round" stroke-linejoin="round" stroke="rgb(21.568627%,49.411765%,72.156863%)" stroke-opacity="1" stroke-miterlimit="10"/><path d="M 179.074219 241.859375 C 179.074219 246.527344 172.074219 246.527344 172.074219 241.859375 C 172.074219 237.195313 179.074219 237.195313 179.074219 241.859375 " type="plot-point" class="aqm65" onclick="plotObjRespond('click', 65, 'pca')" onmouseover="plotObjRespond('show', 65, 'pca')" onmouseout="plotObjRespond('hide', 65, 'pca')" fill-rule="nonzero" fill="rgb(89.411765%,10.196078%,10.980392%)" fill-opacity="1" stroke-width="1" stroke-linecap="round" stroke-linejoin="round" stroke="rgb(89.411765%,10.196078%,10.980392%)" stroke-opacity="1" stroke-miterlimit="10"/><path d="M 193.515625 217.652344 C 193.515625 222.320313 186.515625 222.320313 186.515625 217.652344 C 186.515625 212.984375 193.515625 212.984375 193.515625 217.652344 " type="plot-point" class="aqm66" onclick="plotObjRespond('click', 66, 'pca')" onmouseover="plotObjRespond('show', 66, 'pca')" onmouseout="plotObjRespond('hide', 66, 'pca')" fill-rule="nonzero" fill="rgb(21.568627%,49.411765%,72.156863%)" fill-opacity="1" stroke-width="1" stroke-linecap="round" stroke-linejoin="round" stroke="rgb(21.568627%,49.411765%,72.156863%)" stroke-opacity="1" stroke-miterlimit="10"/></g><path style="fill:none;stroke-width:1;stroke-linecap:round;stroke-linejoin:round;stroke:rgb(0%,0%,0%);stroke-opacity:1;stroke-miterlimit:10;" d="M 58.171875 121.527344 L 375.980469 121.527344 L 375.980469 319.734375 L 58.171875 319.734375 Z M 58.171875 121.527344 "/></g></svg>
